<?xml version="1.0" encoding="UTF-8"?>
<svg id="Layer_2" data-name="Layer 2" xmlns="http://www.w3.org/2000/svg" viewBox="0 0 72.89 72.9">
  <defs>
    <style>
      .cls-1 {
        fill: #99e09a;
      }
    </style>
  </defs>
  <g id="Layer_2-2" data-name="Layer 2">
    <g id="Layer_2-2" data-name="Layer 2-2">
      <g id="Layer_1-2" data-name="Layer 1-2">
        <path class="cls-1" d="m49.58,72.8v-29.85h8.92c.47-3.31.91-6.34,1.38-9.63h-10.36c.05-2.84-.41-5.47.68-7.98.56-1.3,1.66-1.95,3.01-2.07,1.68-.14,3.37-.15,5.06-.2.53-.02,1.06,0,1.71,0v-9.19c-.53-.09-1.09-.26-1.64-.25-3.04.04-6.17-.32-9.1.27-5.82,1.17-8.56,4.51-9.24,10.96-.23,2.2-.06,4.45-.09,6.68,0,.52-.12,1.03-.2,1.72h-9.58v9.67h9.62v29.87c-.69.04-1.21.1-1.74.1-10.15,0-20.3.01-30.44,0-4.87,0-7.57-2.71-7.57-7.61V7.5C0,2.8,2.77.02,7.46,0h57.92c4.71,0,7.5,2.78,7.5,7.46.01,19.35.01,38.69,0,58.04,0,4.6-2.8,7.38-7.43,7.39-4.79.02-9.57,0-14.36,0-.45,0-.89-.04-1.51-.07v-.03h0Z"/>
      </g>
    </g>
  </g>
</svg>