<?xml version="1.0" encoding="UTF-8"?>
<svg id="Layer_2" data-name="Layer 2" xmlns="http://www.w3.org/2000/svg" viewBox="0 0 73.42 73.42">
  <defs>
    <style>
      .cls-1 {
        stroke: #000;
        stroke-miterlimit: 10;
        stroke-width: .75px;
      }
    </style>
  </defs>
  <g id="Layer_1-2" data-name="Layer 1">
    <g>
      <path class="cls-1" d="m50.9,20.55c-1.11-.02-2.02.82-2.05,1.88-.04,1.26.78,2.16,1.98,2.18,1.12.02,2.05-.85,2.07-1.95.03-1.17-.85-2.09-2-2.11Z"/>
      <path class="cls-1" d="m36.72,24.62c-6.64,0-12.08,5.43-12.08,12.06h0c-.17,5.75,4.65,12.17,12.42,12.11,6.33-.04,11.75-5.51,11.77-11.99.02-6.77-5.36-12.18-12.11-12.18Zm-.1,20.08c-4.2,0-7.89-3.74-7.9-7.98,0-4.36,3.73-8.04,8.16-8.03,4.25,0,7.88,3.73,7.89,8.06,0,4.33-3.73,7.97-8.15,7.95Z"/>
      <path class="cls-1" d="m66.82.38H6.6C3.16.38.38,3.16.38,6.6v60.22c0,3.44,2.79,6.22,6.22,6.22h60.22c3.44,0,6.22-2.79,6.22-6.22V6.6c0-3.44-2.79-6.22-6.22-6.22Zm-5.89,45.92c0,4.93-1.87,8.96-5.87,11.92-2.57,1.9-5.53,2.64-8.66,2.67-6.53.04-13.06.04-19.58,0-5.06-.03-9-2.31-11.92-6.34-1.74-2.4-2.32-5.24-2.35-8.15-.06-6.7-.15-13.41.02-20.11.15-5.93,3.31-10.03,8.57-12.58,2.04-.99,4.24-1.21,6.48-1.21h18.68c4.02,0,7.6,1.18,10.44,4.13,2.82,2.93,4.18,6.48,4.19,10.54.02,6.38.01,12.75,0,19.13Z"/>
    </g>
  </g>
</svg>