<?xml version="1.0" encoding="UTF-8"?>
<svg id="Layer_2" data-name="Layer 2" xmlns="http://www.w3.org/2000/svg" viewBox="0 0 72.66 72.68">
  <g id="Layer_2-2" data-name="Layer 2">
    <g id="Layer_1-2" data-name="Layer 1-2">
      <path d="m0,36.22C0,26.77,0,17.33.01,7.88.01,6.86.06,5.8.33,4.82,1.05,2.25,2.82.7,5.44.2,6.28.04,7.16,0,8.02,0,26.95,0,45.89-.02,64.82.05c1.51,0,3.17.31,4.51.98,2.45,1.21,3.3,3.55,3.32,6.19.01,1.69,0,3.38,0,5.07,0,17.57,0,35.14.01,52.72,0,3.95-1.58,6.42-4.79,7.32-.9.25-1.87.34-2.81.34-19.18.02-38.36.02-57.54,0-3.77,0-6.33-1.65-7.15-4.69-.3-1.09-.35-2.28-.35-3.43-.03-9.45-.01-18.89-.01-28.34h-.01Zm59.35,23.28c.04-.61.08-.93.08-1.25,0-5.85.04-11.71,0-17.56,0-1.44-.12-2.89-.35-4.3-.54-3.25-1.88-6.02-4.92-7.74-3.25-1.84-10.44-1.88-13.75,1.37-.65.64-1.32,1.27-2.05,1.97,0-1.05-.04-1.99,0-2.92.05-.79-.28-.98-1.01-.97-2.35.04-4.7.02-7.05.03-.39,0-.78.04-1.23.06v2.25c0,8.78,0,17.56,0,26.34,0,2.68,0,2.67,2.71,2.65,2.29-.02,4.59,0,6.95,0,.03-.6.07-1.05.08-1.49.07-5.48.06-10.97.25-16.44.04-1.2.54-2.53,1.2-3.55,1.27-1.96,3.34-2.21,5.49-1.87,2,.32,3.13,1.56,3.48,3.5.2,1.09.36,2.2.37,3.3.05,5.15.04,10.31.07,15.46,0,.48-.25,1.16.65,1.17h9.01,0ZM13.24,28.11v1.66c-.01,9.57,0,19.14-.05,28.71,0,.91.39,1.01,1.11,1,2.6-.04,5.2-.04,7.8-.07.27,0,.54-.08.89-.13v-1.42c0-9.28,0-18.56.02-27.84,0-.41.06-.85-.06-1.23-.08-.26-.42-.64-.64-.64-2.96-.04-5.92-.03-9.07-.03h0Zm5-15.82c-3.26-.04-5.88,2.25-5.93,5.19-.06,3.49,2.35,6.05,5.73,6.08,3.23.03,5.67-2.33,5.71-5.53.05-3.19-2.37-5.71-5.51-5.75h0Z"/>
    </g>
  </g>
</svg>