<?xml version="1.0" encoding="UTF-8"?>
<svg id="Layer_2" data-name="Layer 2" xmlns="http://www.w3.org/2000/svg" viewBox="0 0 72.68 72.7">
  <defs>
    <style>
      .cls-1 {
        fill: #99e09a;
      }
    </style>
  </defs>
  <g id="Layer_2-2" data-name="Layer 2">
    <g id="Layer_2-2" data-name="Layer 2-2">
      <g id="Layer_1-2" data-name="Layer 1-2">
        <path class="cls-1" d="m0,36.35C0,26.9,0,17.46.02,8.01.02,7.02.02,6.01.27,5.06.93,2.42,2.67.79,5.33.22,6.21.03,7.13.01,8.04.01,26.97,0,45.91-.02,64.84.05c1.51,0,3.16.32,4.51.97,2.41,1.18,3.28,3.46,3.32,6.07.02,1.53,0,3.05,0,4.58,0,17.78,0,35.56.01,53.34,0,3.95-1.58,6.42-4.79,7.33-.9.25-1.87.34-2.81.34-19.18.02-38.36.02-57.54,0-3.77,0-6.33-1.64-7.16-4.69-.3-1.09-.35-2.28-.36-3.43-.02-9.4-.02-18.81-.02-28.21h0Zm33.6,2.06v-6.95c0-.65-.15-1.01-.93-.89-1.3.2-2.64.2-3.91.5-7.8,1.84-11.95,8.95-12.2,14.51-.35,7.98,3.73,13.91,11.07,16.37,6.46,2.16,13.04.2,17.33-5.08,2.63-3.23,3.65-6.94,3.66-11.02,0-5.77.02-11.55.02-17.32v-3.23c3.48,4.41,7.71,6.37,13.07,6.05v-8.75c-.27-.07-.54-.17-.82-.21-6.75-1.13-10.56-5.25-12.02-11.78-.06-.26-.36-.66-.56-.66-2.33-.05-4.66-.03-7.05-.03v1.78c-.06,11.46-.15,22.93-.18,34.39,0,3.79-1.62,6.52-5.06,8.04-3.08,1.36-6.07.98-8.7-1.18-2.56-2.11-3.44-4.9-2.69-8.1.79-3.36,3.01-5.4,6.38-6.14.79-.17,1.62-.19,2.56-.29h.03Z"/>
      </g>
    </g>
  </g>
</svg>