<?xml version="1.0" encoding="UTF-8"?>
<svg id="Layer_2" data-name="Layer 2" xmlns="http://www.w3.org/2000/svg" viewBox="0 0 73.41 72.68">
  <defs>
    <style>
      .cls-1 {
        fill: #fff;
      }
    </style>
  </defs>
  <g id="Layer_2-2" data-name="Layer 2">
    <g id="Layer_2-2" data-name="Layer 2-2">
      <g id="Layer_1-2" data-name="Layer 1-2">
        <g>
          <path class="cls-1" d="m.02,36.22C.02,26.77.02,17.33.03,7.88c0-1.02.05-2.08.32-3.06C1.08,2.25,2.86.7,5.51.2,6.36.04,7.25,0,8.12,0,27.24,0,46.37-.02,65.49.05c1.53,0,3.2.32,4.56.97,2.43,1.18,3.31,3.47,3.35,6.07.02,1.65,0,3.3,0,4.95,0,17.65,0,35.31.01,52.96,0,3.95-1.6,6.42-4.84,7.32-.91.25-1.89.34-2.84.34-19.37.02-38.75.02-58.12,0-3.8,0-6.39-1.64-7.23-4.69-.3-1.09-.35-2.28-.36-3.43-.02-9.45-.02-18.89-.02-28.34h0l.02.02Zm33.49,5.99c3.14,4.43,6.17,8.67,9.15,12.94.5.72,1.03,1.03,1.93,1.02,4.37-.05,8.75-.02,13.12-.02.35,0,.7-.04,1.16-.07-5.61-7.99-11.14-15.85-16.76-23.86,4.55-5.12,9.1-10.26,13.66-15.39-1.5-.28-2.79-.34-4.06-.24-.5.04-1.12.32-1.45.69-2.27,2.58-4.45,5.24-6.7,7.83-1.15,1.33-2.4,2.58-3.65,3.91-2.83-3.97-5.58-7.8-8.27-11.66-.44-.64-.91-.82-1.64-.81-4.46.03-8.91.01-13.37.02-.31,0-.63.04-1.17.07.45.65.78,1.15,1.13,1.64,4.63,6.55,9.27,13.1,13.9,19.65.4.56.86,1.02.16,1.8-4.66,5.22-9.26,10.49-13.87,15.75-.14.16-.22.38-.4.69h1.15c4.02.03,3.97-.02,6.57-3.12,3.03-3.61,6.18-7.12,9.41-10.82,0,0,0-.02,0-.02Z"/>
          <path class="cls-1" d="m23.16,20.5c1.84,0,3.39-.08,4.92.04.5.04,1.11.5,1.42.94,6.03,8.45,12.02,16.93,18.03,25.39,1.21,1.7,2.44,3.4,3.8,5.3-1.93,0-3.62.04-5.3-.03-.32,0-.69-.4-.91-.7-6.82-9.61-13.63-19.24-20.44-28.86-.45-.63-.91-1.25-1.52-2.09h0Z"/>
        </g>
      </g>
    </g>
  </g>
</svg>