<?xml version="1.0" encoding="UTF-8"?>
<svg id="Layer_2" data-name="Layer 2" xmlns="http://www.w3.org/2000/svg" viewBox="0 0 1375.28 666.69">
  <defs>
    <style>
      .cls-1 {
        fill: #fff;
      }
    </style>
  </defs>
  <g id="Layer_1-2" data-name="Layer 1">
    <g>
      <path class="cls-1" d="m0,266.52v133.64c46.1,21.76,92.46,43.65,139.08,65.66,46.62,22.02,92.72,43.9,138.31,65.66v-136.75c-23.31-10.36-46.75-20.85-70.32-31.47-23.58-10.61-47.01-21.1-70.32-31.47,23.31-10.36,46.74-20.85,70.32-31.47,23.57-10.61,47.01-20.84,70.32-30.69v-134.42c-45.59,21.76-91.69,43.65-138.31,65.66C92.46,222.89,46.1,244.77,0,266.52Z"/>
      <path class="cls-1" d="m1236.97,200.87c-46.62-22.01-92.98-43.9-139.08-65.66v134.42c23.31,9.85,46.74,20.08,70.32,30.69,23.56,10.62,47.01,21.11,70.32,31.47-23.31,10.37-46.75,20.86-70.32,31.47-23.58,10.62-47.01,21.11-70.32,31.47v136.75c46.1-21.76,92.46-43.63,139.08-65.66,46.62-22.01,92.72-43.9,138.31-65.66v-133.64c-45.59-21.76-91.69-43.63-138.31-65.66Z"/>
      <path class="cls-1" d="m938.22,83.14c-29.53-26.42-64.62-46.88-105.28-61.38C792.27,7.26,747.33,0,698.13,0c-40.93,0-79.25,5.44-115,16.32-35.74,10.88-68.25,26.55-97.51,47.01-29.27,20.47-54.39,44.68-75.37,72.65-20.98,27.97-37.17,59.19-48.56,93.63-11.4,34.46-17.09,71.36-17.09,110.72,0,49.22,8.28,93.76,24.86,133.64,16.57,39.89,39.75,74.07,69.54,102.56,29.78,28.48,65,50.5,105.67,66.04,40.66,15.54,85.34,23.56,134.03,24.09,48.68.51,99.71-7.26,153.07-23.31v-99.46c-41.45,16.05-81.2,25.25-119.27,27.58s-73.43-1.43-106.06-11.27c-32.63-9.85-61-24.99-85.08-45.45-24.09-20.46-42.87-45.71-56.33-75.76-13.48-30.04-20.2-63.71-20.2-101.01,0-35.22,6.08-67.72,18.26-97.51,12.17-29.78,29.53-55.68,52.06-77.7,22.53-22.01,49.07-39.1,79.64-51.28,30.56-12.17,64.22-18.26,101.01-18.26s68.11,5.05,97.12,15.15c29,10.1,53.87,24.48,74.59,43.12,20.71,18.65,36.77,40.67,48.17,66.04,11.39,25.39,17.09,53.36,17.09,83.92,0,20.72-3.24,38.46-9.71,53.22-6.48,14.76-14.51,25.91-24.09,33.41-9.59,7.52-19.04,11.27-28.36,11.27-8.29,0-14.64-2.33-19.04-6.99-4.41-4.66-6.6-11.39-6.6-20.2v-191.92h-101.01v18.65c-9.32-8.28-20.2-14.76-32.63-19.42-12.43-4.66-25.64-6.99-39.63-6.99-25.91,0-50,6.74-72.26,20.2-22.28,13.48-40.15,32.38-53.61,56.72-13.48,24.35-20.2,52.84-20.2,85.47s6.73,60.49,20.2,85.08c13.46,24.61,31.47,43.78,54,57.5,22.53,13.73,46.74,20.59,72.65,20.59,20.71,0,39.63-4.01,56.72-12.04,17.09-8.03,31.33-18.51,42.74-31.47,9.32,11.92,20.85,21.11,34.58,27.58,13.72,6.48,29.65,9.71,47.79,9.71,22.79,0,44.68-4.27,65.66-12.82,20.98-8.55,39.75-21.23,56.33-38.07,16.57-16.83,29.78-37.42,39.63-61.77,9.83-24.34,14.76-52.06,14.76-83.14,0-43.51-8.04-83.26-24.09-119.27-16.06-36-38.85-67.21-68.38-93.63Zm-209.79,300.31c-10.37,12.18-24.35,18.26-41.96,18.26s-30.69-5.95-40.79-17.87c-10.1-11.91-15.15-28.23-15.15-48.95s5.05-36.91,15.15-48.56c10.1-11.65,23.7-17.48,40.79-17.48s31.59,5.96,41.96,17.87c10.36,11.92,15.54,27.97,15.54,48.17s-5.18,36.4-15.54,48.56Z"/>
    </g>
  </g>
</svg>