<?xml version="1.0" encoding="UTF-8"?>
<svg xmlns="http://www.w3.org/2000/svg" viewBox="0 0 1200 630">
  <defs>
    <style>
      .cls-1 {
        letter-spacing: 0em;
      }

      .cls-2, .cls-3, .cls-4 {
        fill: #fff;
      }

      .cls-5 {
        letter-spacing: 0em;
      }

      .cls-6 {
        letter-spacing: -.02em;
      }

      .cls-3 {
        font-size: 63.5px;
      }

      .cls-3, .cls-4 {
        font-family: TiltWarp-Regular, 'Tilt Warp';
        font-variation-settings: 'XROT' 0, 'YROT' 0;
      }

      .cls-7 {
        letter-spacing: 0em;
      }

      .cls-8 {
        letter-spacing: 0em;
      }

      .cls-4 {
        font-size: 117.18px;
      }

      .cls-9 {
        letter-spacing: 0em;
      }

      .cls-10 {
        fill: #1a1a1a;
      }

      .cls-11 {
        letter-spacing: 0em;
      }
    </style>
  </defs>
  <g id="Layer_2" data-name="Layer 2">
    <rect class="cls-10" width="1200" height="630"/>
  </g>
  <g id="Layer_1" data-name="Layer 1">
    <g>
      <g>
        <g>
          <path class="cls-2" d="m146.09,219.18v32.4c11.18,5.27,22.41,10.58,33.72,15.92,11.3,5.34,22.48,10.64,33.53,15.92v-33.15c-5.65-2.51-11.33-5.05-17.05-7.63-5.72-2.57-11.4-5.12-17.05-7.63,5.65-2.51,11.33-5.05,17.05-7.63,5.71-2.57,11.4-5.05,17.05-7.44v-32.59c-11.05,5.27-22.23,10.58-33.53,15.92-11.3,5.34-22.54,10.64-33.72,15.92Z"/>
          <path class="cls-2" d="m445.95,203.26c-11.3-5.34-22.54-10.64-33.72-15.92v32.59c5.65,2.39,11.33,4.87,17.05,7.44,5.71,2.58,11.4,5.12,17.05,7.63-5.65,2.51-11.33,5.06-17.05,7.63-5.72,2.58-11.4,5.12-17.05,7.63v33.15c11.18-5.27,22.42-10.58,33.72-15.92,11.3-5.34,22.48-10.64,33.53-15.92v-32.4c-11.05-5.27-22.23-10.58-33.53-15.92Z"/>
          <path class="cls-2" d="m373.53,174.73c-7.16-6.4-15.67-11.36-25.52-14.88-9.86-3.51-20.75-5.27-32.68-5.27-9.92,0-19.21,1.32-27.88,3.96-8.66,2.64-16.55,6.44-23.64,11.4-7.1,4.96-13.19,10.83-18.27,17.61-5.09,6.78-9.01,14.35-11.77,22.7-2.76,8.35-4.14,17.3-4.14,26.84,0,11.93,2.01,22.73,6.03,32.4,4.02,9.67,9.64,17.96,16.86,24.86,7.22,6.9,15.76,12.24,25.62,16.01,9.86,3.77,20.69,5.71,32.49,5.84,11.8.12,24.17-1.76,37.11-5.65v-24.11c-10.05,3.89-19.68,6.12-28.91,6.69-9.23.57-17.8-.35-25.71-2.73-7.91-2.39-14.79-6.06-20.63-11.02-5.84-4.96-10.39-11.08-13.66-18.37-3.27-7.28-4.9-15.45-4.9-24.49,0-8.54,1.47-16.42,4.43-23.64,2.95-7.22,7.16-13.5,12.62-18.84,5.46-5.34,11.9-9.48,19.31-12.43,7.41-2.95,15.57-4.43,24.49-4.43s16.51,1.22,23.55,3.67c7.03,2.45,13.06,5.93,18.08,10.45,5.02,4.52,8.91,9.86,11.68,16.01,2.76,6.15,4.14,12.94,4.14,20.34,0,5.02-.79,9.32-2.35,12.9-1.57,3.58-3.52,6.28-5.84,8.1-2.33,1.82-4.61,2.73-6.88,2.73-2.01,0-3.55-.57-4.61-1.7-1.07-1.13-1.6-2.76-1.6-4.9v-46.52h-24.49v4.52c-2.26-2.01-4.9-3.58-7.91-4.71-3.01-1.13-6.22-1.7-9.61-1.7-6.28,0-12.12,1.63-17.52,4.9-5.4,3.27-9.73,7.85-13,13.75-3.27,5.9-4.9,12.81-4.9,20.72s1.63,14.66,4.9,20.63c3.26,5.97,7.63,10.61,13.09,13.94,5.46,3.33,11.33,4.99,17.61,4.99,5.02,0,9.61-.97,13.75-2.92,4.14-1.95,7.6-4.49,10.36-7.63,2.26,2.89,5.05,5.12,8.38,6.69,3.33,1.57,7.19,2.35,11.58,2.35,5.52,0,10.83-1.04,15.92-3.11,5.09-2.07,9.64-5.15,13.66-9.23,4.02-4.08,7.22-9.07,9.61-14.97,2.38-5.9,3.58-12.62,3.58-20.15,0-10.55-1.95-20.18-5.84-28.91-3.89-8.73-9.42-16.29-16.58-22.7Zm-50.86,72.8c-2.51,2.95-5.9,4.43-10.17,4.43s-7.44-1.44-9.89-4.33c-2.45-2.89-3.67-6.84-3.67-11.87s1.22-8.95,3.67-11.77c2.45-2.83,5.74-4.24,9.89-4.24s7.66,1.45,10.17,4.33c2.51,2.89,3.77,6.78,3.77,11.68s-1.26,8.82-3.77,11.77Z"/>
        </g>
        <text class="cls-4" transform="translate(492.03 279.09)"><tspan class="cls-9" x="0" y="0">r</tspan><tspan x="45.7" y="0">ch</tspan><tspan class="cls-8" x="171.67" y="0">e</tspan><tspan x="237.53" y="0">typeX</tspan></text>
      </g>
      <text class="cls-3" transform="translate(222.02 447.35)"><tspan x="0" y="0">ma</tspan><tspan class="cls-6" x="94.42" y="0">k</tspan><tspan class="cls-5" x="129.41" y="0">e p</tspan><tspan class="cls-7" x="218.12" y="0">r</tspan><tspan x="242.89" y="0">og</tspan><tspan class="cls-1" x="318.83" y="0">r</tspan><tspan class="cls-5" x="343.6" y="0">e</tspan><tspan class="cls-1" x="379.6" y="0">s</tspan><tspan x="409.44" y="0">s pla</tspan><tspan class="cls-11" x="549.78" y="0">y</tspan><tspan x="583.43" y="0">able_</tspan></text>
    </g>
  </g>
</svg>